HIERARCHY
ROOT Hips
{
 OFFSET 0.000000 0.000000 0.000000
 CHANNELS 6 Xposition Yposition Zposition Yrotation Xrotation Zrotation
 JOINT Chest
 {
  OFFSET 0.000000 13.173100 -0.061900
  CHANNELS 3 Yrotation Xrotation Zrotation
  JOINT Chest2
  {
   OFFSET 0.000000 8.040800 0.126200
   CHANNELS 3 Yrotation Xrotation Zrotation
   JOINT Chest3
   {
    OFFSET 0.000000 7.994400 0.000000
    CHANNELS 3 Yrotation Xrotation Zrotation
    JOINT Chest4
    {
     OFFSET 0.000000 7.986200 0.000000
     CHANNELS 3 Yrotation Xrotation Zrotation
     JOINT Neck
     {
      OFFSET 0.000000 12.259400 0.000000
      CHANNELS 3 Yrotation Xrotation Zrotation
      JOINT Head
      {
       OFFSET 0.000000 7.518700 0.267100
       CHANNELS 3 Yrotation Xrotation Zrotation
       End Site
       {
        OFFSET 0.000000 13.617700 0.141000
       }
      }
     }
     JOINT RightCollar
     {
      OFFSET -2.983800 8.314300 0.000000
      CHANNELS 3 Yrotation Xrotation Zrotation
      JOINT RightShoulder
      {
       OFFSET -16.133400 0.000000 0.000000
       CHANNELS 3 Yrotation Xrotation Zrotation
       JOINT RightElbow
       {
        OFFSET 0.000000 -29.822100 0.000000
        CHANNELS 3 Yrotation Xrotation Zrotation
        JOINT RightWrist
        {
         OFFSET 0.000000 -24.437700 0.010900
         CHANNELS 3 Yrotation Xrotation Zrotation
         End Site
         {
          OFFSET 0.000000 -18.312300 0.000000
         }
        }
       }
      }
     }
     JOINT LeftCollar
     {
      OFFSET 2.983800 8.314300 0.000000
      CHANNELS 3 Yrotation Xrotation Zrotation
      JOINT LeftShoulder
      {
       OFFSET 16.133400 0.000000 0.000000
       CHANNELS 3 Yrotation Xrotation Zrotation
       JOINT LeftElbow
       {
        OFFSET 0.000000 -29.822100 0.000000
        CHANNELS 3 Yrotation Xrotation Zrotation
        JOINT LeftWrist
        {
         OFFSET 0.000000 -24.437700 0.010900
         CHANNELS 3 Yrotation Xrotation Zrotation
         End Site
         {
          OFFSET 0.000000 -18.312300 0.000000
         }
        }
       }
      }
     }
    }
   }
  }
 }
 JOINT RightHip
 {
  OFFSET -11.206700 0.306200 0.030900
  CHANNELS 3 Yrotation Xrotation Zrotation
  JOINT RightKnee
  {
   OFFSET 0.000000 -57.334900 0.009400
   CHANNELS 3 Yrotation Xrotation Zrotation
   JOINT RightAnkle
   {
    OFFSET 0.000000 -43.376200 0.036600
    CHANNELS 3 Yrotation Xrotation Zrotation
    JOINT RightToe
    {
     OFFSET 0.000000 -10.035500 18.363100
     CHANNELS 3 Yrotation Xrotation Zrotation
     End Site
     {
      OFFSET 0.000000 -1.618500 7.239000
     }
    }
   }
  }
 }
 JOINT LeftHip
 {
  OFFSET 11.206700 0.306200 0.030900
  CHANNELS 3 Yrotation Xrotation Zrotation
  JOINT LeftKnee
  {
   OFFSET 0.000000 -57.334900 0.009400
   CHANNELS 3 Yrotation Xrotation Zrotation
   JOINT LeftAnkle
   {
    OFFSET 0.000000 -43.376200 0.036600
    CHANNELS 3 Yrotation Xrotation Zrotation
    JOINT LeftToe
    {
     OFFSET 0.000000 -10.035500 18.363100
     CHANNELS 3 Yrotation Xrotation Zrotation
     End Site
     {
      OFFSET 0.000000 -1.618500 7.239000
     }
    }
   }
  }
 }
}
MOTION
Frames: 11
Frame Time: 0.008333
0.000000 110.232800 0.000000 0.000000 -5.767877 0.000000 0.000000 11.653817 0.000000 0.000000 -5.885947 0.000000 0.000000 -0.000000 0.000000 0.000000 -0.000000 0.000000 0.000000 12.528835 0.000000 0.000000 0.711642 0.000000 0.000000 -0.000000 0.000000 0.000000 0.000000 -90.000000 0.000000 -2.309062 0.000000 0.000000 2.309062 0.000000 0.000000 -0.000000 0.000000 0.000000 -0.000000 90.000000 0.000000 -2.309062 0.000000 0.000000 2.309062 0.000000 0.000000 8.520406 0.000000 0.000000 1.905762 0.000000 -0.000000 -4.658285 0.000000 0.000000 -0.000000 0.000000 0.000000 8.520406 0.000000 0.000000 1.905762 0.000000 -0.000000 -4.658285 0.000000 0.000000 -0.000000 0.000000
-96.322358 65.074568 85.129333 173.179616 -36.773298 -2.884515 2.364170 20.332260 0.818988 0.288298 2.614253 0.222824 0.478612 4.261998 0.363903 2.192881 17.457019 1.766765 -0.338951 15.729623 -0.150372 -0.577029 -6.584353 -0.157592 -3.421434 1.468494 -4.382930 -3.202875 -10.019070 3.935949 172.714126 -82.322373 -159.040966 2.639237 -0.470222 4.017466 -3.788704 1.381171 -0.506769 7.623623 -6.895170 4.744633 154.590612 -72.856928 -175.766995 -7.485292 -14.080725 14.207913 -4.044084 -43.934269 5.608664 -92.674125 85.615685 -87.125504 1.227525 -8.009124 -3.974082 0.423269 -0.638297 0.216360 -5.746657 -40.777033 5.224935 73.772808 81.847909 63.851993 -4.752831 -11.333640 5.831281 0.461919 1.118312 0.243616
-96.318559 65.059888 85.137547 173.149115 -36.768816 -2.861494 2.384597 20.335639 0.816905 0.288711 2.661013 0.241757 0.483306 4.282235 0.367634 2.208688 17.491255 1.780347 -0.316117 15.706434 -0.168958 -0.527882 -6.627500 -0.200276 -3.383156 1.434761 -4.371478 -3.029666 -10.187172 3.806203 170.530587 -82.216350 -157.010199 2.711709 -0.663094 3.570718 -3.871322 1.412379 -0.520295 7.661510 -7.165539 4.740100 153.887719 -72.822109 -175.089656 -7.436148 -14.032537 14.336049 -4.056772 -43.950581 5.643423 -92.670586 85.601858 -87.142865 1.202761 -8.000399 -3.993266 0.442241 -0.667376 0.234854 -5.728528 -40.786587 5.231382 73.752519 81.851870 63.829040 -4.759251 -11.325387 5.823465 0.471708 1.116285 0.250593
-96.311734 65.044419 85.145558 173.125807 -36.770744 -2.847558 2.400372 20.379583 0.835459 0.291227 2.680855 0.250771 0.487744 4.303917 0.371724 2.223245 17.528086 1.794841 -0.290569 15.673291 -0.188602 -0.534588 -6.698685 -0.226536 -3.290705 1.472673 -4.326214 -2.951499 -10.415130 3.654140 169.261033 -82.065152 -155.844230 2.726085 -0.939426 3.241698 -3.950326 1.433993 -0.539487 7.719444 -7.451636 4.725223 153.239935 -72.744049 -174.481225 -7.392268 -14.077252 14.424064 -4.060668 -43.957553 5.667268 -92.651082 85.595710 -87.129324 1.190341 -7.996155 -4.009197 0.452191 -0.673272 0.243027 -5.714048 -40.789047 5.238331 73.728346 81.858669 63.806845 -4.754649 -11.324889 5.819387 0.474227 1.119540 0.251925
-96.304036 65.027949 85.153851 173.100540 -36.773012 -2.828212 2.415605 20.482910 0.887352 0.297376 2.645490 0.225542 0.492305 4.326867 0.376380 2.238242 17.566900 1.811446 -0.261537 15.634204 -0.208187 -0.444371 -6.764976 -0.283454 -3.237222 1.474941 -4.308988 -2.882578 -10.605278 3.536320 168.969207 -81.901284 -155.618190 2.670589 -1.264874 3.054514 -4.027704 1.451135 -0.560796 7.778042 -7.754354 4.703252 152.822579 -72.633431 -174.082894 -7.353006 -14.207597 14.495200 -4.062923 -43.965722 5.689680 -92.638564 85.594268 -87.126647 1.173075 -7.990668 -4.023324 0.461078 -0.673035 0.249578 -5.692318 -40.790430 5.239533 73.703025 81.862368 63.779969 -4.748813 -11.325785 5.823791 0.468192 1.126111 0.249651
-96.296143 65.010644 85.162647 173.068125 -36.772544 -2.798404 2.439437 20.507433 0.892173 0.303770 2.686821 0.244741 0.497061 4.350900 0.381386 2.253840 17.607223 1.829347 -0.226836 15.594325 -0.226217 -0.340595 -6.835904 -0.339288 -3.212970 1.458606 -4.305904 -2.829545 -10.779844 3.439300 169.523981 -81.745357 -156.209097 2.548515 -1.610410 2.999273 -4.098087 1.467627 -0.578049 7.826761 -8.071489 4.680226 152.722435 -72.495738 -173.967331 -7.317513 -14.401146 14.568817 -4.056360 -43.979552 5.707212 -92.635510 85.595397 -87.137648 1.153116 -7.983183 -4.030465 0.469650 -0.681641 0.252382 -5.654769 -40.794441 5.229807 73.655872 81.865136 63.733970 -4.742093 -11.324941 5.828713 0.459778 1.131929 0.245440
-96.287269 64.994530 85.169798 173.045400 -36.780151 -2.772061 2.462356 20.578696 0.923018 0.305017 2.690541 0.240280 0.501935 4.376316 0.386695 2.269426 17.649778 1.847915 -0.185806 15.558619 -0.244041 -0.257585 -6.902113 -0.387404 -3.200186 1.448686 -4.308479 -2.809449 -10.973536 3.352311 170.701990 -81.604849 -157.395779 2.370863 -1.957491 3.049165 -4.159206 1.484817 -0.589667 7.872543 -8.406381 4.660035 152.916226 -72.334486 -174.115107 -7.294516 -14.626098 14.656164 -4.040138 -43.981787 5.707909 -92.658387 85.593330 -87.166237 1.153512 -7.985327 -4.030050 0.470616 -0.686859 0.249791 -5.614040 -40.789889 5.213601 73.663085 81.853117 63.740051 -4.747392 -11.324560 5.841805 0.444086 1.135903 0.238138
-96.278426 64.980057 85.174539 173.005940 -36.800017 -2.730356 2.499711 20.661023 0.951308 0.306486 2.694490 0.235354 0.507134 4.402834 0.392567 2.286087 17.694028 1.868619 -0.140465 15.531001 -0.263230 -0.166059 -6.953277 -0.439612 -3.204000 1.447592 -4.316718 -2.822822 -11.192793 3.273917 172.300842 -81.473710 -158.972462 2.154156 -2.293024 3.171656 -4.216176 1.506672 -0.595716 7.930632 -8.763230 4.640881 153.321064 -72.159749 -174.456163 -7.290484 -14.857956 14.749844 -4.004329 -43.974808 5.699170 -92.713088 85.592166 -87.227034 1.157537 -7.983715 -4.025339 0.464497 -0.685985 0.240917 -5.546459 -40.774634 5.183177 73.665866 81.846592 63.749828 -4.747665 -11.315696 5.849897 0.431458 1.129049 0.234467
-96.263860 64.962955 85.183578 172.971470 -36.799924 -2.716762 2.538807 20.696193 0.986879 0.312741 2.724236 0.247343 0.512512 4.430301 0.398932 2.303511 17.739563 1.891329 -0.089678 15.513901 -0.283445 -0.063888 -6.984812 -0.495943 -3.222875 1.455427 -4.326195 -2.869170 -11.436503 3.202186 174.157359 -81.340298 -160.776894 1.926564 -2.613083 3.335910 -4.269379 1.534418 -0.592118 8.008177 -9.141308 4.616925 153.848344 -71.980175 -174.912829 -7.301849 -15.081930 14.837666 -4.010619 -43.986802 5.739524 -92.619752 85.618331 -87.135891 1.116091 -7.959945 -4.046627 0.476279 -0.699253 0.248615 -5.503185 -40.780418 5.187343 73.689024 81.843586 63.782184 -4.735922 -11.319254 5.864529 0.404629 1.132679 0.222320
-96.252772 64.947388 85.189028 172.958621 -36.814275 -2.699049 2.549452 20.722840 0.985992 0.324316 2.779147 0.275461 0.517773 4.459596 0.405664 2.320221 17.787888 1.914952 -0.029947 15.508242 -0.304054 0.055116 -6.995031 -0.556366 -3.249657 1.468079 -4.335454 -2.939841 -11.702411 3.137396 176.070605 -81.195607 -162.623992 1.717644 -2.921343 3.512199 -4.315999 1.565966 -0.580066 8.103624 -9.540055 4.586799 154.422971 -71.801575 -175.417744 -7.321404 -15.290135 14.922589 -4.027395 -43.990300 5.778942 -92.751746 85.595373 -87.297877 1.096453 -7.934440 -4.055974 0.499054 -0.724541 0.264764 -5.458970 -40.774172 5.165676 73.698610 81.847097 63.806322 -4.731261 -11.316894 5.871589 0.397619 1.132095 0.216854
-96.239341 64.931889 85.193506 172.940032 -36.834446 -2.688501 2.577568 20.789875 1.023681 0.326215 2.800040 0.278976 0.523249 4.491292 0.412845 2.337402 17.839934 1.939811 0.037297 15.511824 -0.324490 0.188048 -6.987984 -0.618994 -3.281953 1.480873 -4.343747 -3.021771 -11.987680 3.080173 177.809426 -81.034277 -164.298441 1.541341 -3.220868 3.671230 -4.362298 1.598925 -0.563712 8.212326 -9.956645 4.551186 154.988470 -71.633523 -175.914503 -7.342242 -15.483024 15.018122 -4.018985 -43.977418 5.792494 -92.750827 85.611103 -87.295422 1.095660 -7.931733 -4.066581 0.488848 -0.723467 0.265317 -5.419145 -40.761093 5.158135 73.717183 81.852611 63.838862 -4.722281 -11.317276 5.878636 0.388366 1.131602 0.211065
